# xmcd
#
# Track frame offsets:
#	150
#	14930
#	29837
#	40375
#	55485
#	77062
#	91012
#	101760
#	111790
#	128190
#	144300
#	158757
#	171347
#	184357
#	199280
#	216777
#	230085
#	245087
#	257307
#
# Disc length: 3593 seconds
#
# Revision: 0
# Processed by: cddbd v1.5.1PL0 Copyright (c) Steve Scherf et al.
# Submitted via: dBpowerAMP V4.0
#
DISCID=1b0e0713
DTITLE=Various Artist - Klassiske Danske Duetter CD
DYEAR=2000
DGENRE=Dansktop
TTITLE0=En Dør Til Fantasien - Kandis and Karina Høgfeldt
TTITLE1=Jeg Ser Altid Lyst På Livet - Lis and Per 
TTITLE2=Fyn Er Fin - Lasse and Mathilda
TTITLE3=Du Skælder Mig Hele Tiden Ud - Tommy Seebach and Anette Heick
TTITLE4=Bare Der Er Sol I Dine Øjne - Gustav Winckler and Bent Wertherk 
TTITLE5=Noget Jeg Længe Har Ønsket Mig - Birthe Kjær and Keld Heick
TTITLE6=Det Vi Holder Af - Bjørn and Johnny
TTITLE7=Vi Har Så Meget At Sige Hinanden - Frank and Merete
TTITLE8=Du Som Rør Ved Mit Hjerte - Dorthe Kollo and Kenny Lübcke
TTITLE9=I Græsset På En Grøftekant - Bjørn hansen and Janni Brorson
TTITLE10=Peter Lå I Telt - Jodle Birge and Ib Grønbeck
TTITLE11=Sig Mig - Richardt Ragnvald and Karina Høgfeldt
TTITLE12=Vi Kan Det Hele - Danmarks største duo
TTITLE13=Hønsefarm - gustav Winckler and Ib Grønbeck
TTITLE14=Telefonen - Henning Vilen and Merete
TTITLE15=Hvad Er Du - Dorthe Kollo and Johnny Reimar
TTITLE16=Vi Tror På Lykken - Birthe Kjæt and Thorleif
TTITLE17=Alle Synger I Badet - Keld and Hilda
TTITLE18=Vi Venter En Baby - Slik 
EXTD=
EXTT0=
EXTT1=
EXTT2=
EXTT3=
EXTT4=
EXTT5=
EXTT6=
EXTT7=
EXTT8=
EXTT9=
EXTT10=
EXTT11=
EXTT12=
EXTT13=
EXTT14=
EXTT15=
EXTT16=
EXTT17=
EXTT18=
PLAYORDER=
